<svg width="22" height="16" viewBox="0 0 22 16" fill="none" xmlns="http://www.w3.org/2000/svg">
<path d="M20.9706 2.84699C20.7252 1.92316 20.0023 1.19559 19.0845 0.948672C17.4208 0.5 10.7497 0.5 10.7497 0.5C10.7497 0.5 4.07859 0.5 2.41488 0.948672C1.49703 1.19563 0.774141 1.92316 0.528789 2.84699C0.0830078 4.52148 0.0830078 8.01516 0.0830078 8.01516C0.0830078 8.01516 0.0830078 11.5088 0.528789 13.1833C0.774141 14.1071 1.49703 14.8044 2.41488 15.0513C4.07859 15.5 10.7497 15.5 10.7497 15.5C10.7497 15.5 17.4208 15.5 19.0845 15.0513C20.0023 14.8044 20.7252 14.1071 20.9706 13.1833C21.4164 11.5088 21.4164 8.01516 21.4164 8.01516C21.4164 8.01516 21.4164 4.52148 20.9706 2.84699ZM8.56785 11.1871V4.84316L14.1436 8.01523L8.56785 11.1871Z" fill="#9CA3AF"/>
</svg>
